<svg xmlns="http://www.w3.org/2000/svg" version="1.1" xmlns:xlink="http://www.w3.org/1999/xlink" xmlns:svgjs="http://svgjs.dev/svgjs" width="2000" height="671" viewBox="0 0 2000 671"><g transform="matrix(1,0,0,1,-1.2121212121212466,0.8962968640036024)"><svg viewBox="0 0 396 133" data-background-color="#051726" preserveAspectRatio="xMidYMid meet" height="671" width="2000" xmlns="http://www.w3.org/2000/svg" xmlns:xlink="http://www.w3.org/1999/xlink"><g id="tight-bounds" transform="matrix(1,0,0,1,0.2400000000000091,-0.17765645739564206)"><svg viewBox="0 0 395.52 133.3553129147913" height="133.3553129147913" width="395.52"><g><svg viewBox="0 0 671.6281010875026 226.44916965739029" height="133.3553129147913" width="395.52"><g transform="matrix(1,0,0,1,276.10810108750263,60.63671966015582)"><svg viewBox="0 0 395.52 105.17573033707865" height="105.17573033707865" width="395.52"><g id="textblocktransform"><svg viewBox="0 0 395.52 105.17573033707865" height="105.17573033707865" width="395.52" id="textblock"><g><svg viewBox="0 0 395.52 105.17573033707865" height="105.17573033707865" width="395.52"><g transform="matrix(1,0,0,1,0,0)"><svg width="395.52" viewBox="-0.05000000447034836 -34.900001525878906 133.49000549316406 35.5" height="105.17573033707865" data-palette-color="#ffffff"><g class="wordmark-text-0" data-fill-palette-color="primary" id="text-0"><path d="M-0.05 0L10.85-34.3 16.5-34.3 27.4 0 22.65 0 20.3-7.65 6.7-7.65 4.35 0-0.05 0ZM7.9-11.65L19.05-11.65 14.4-26.9Q14.05-28 13.6-30.7L13.6-30.7 13.4-30.7Q12.95-27.95 12.6-26.9L12.6-26.9 7.9-11.65ZM30.85 0L30.85-34.3 35.25-34.3 35.25 0 30.85 0ZM54-14L54-17.85 67.4-17.85 67.4 0 64.5 0 63.55-3.8Q60.55 0.6 54.7 0.6L54.7 0.6Q48.15 0.6 44.67-3.85 41.2-8.3 41.2-17.15L41.2-17.15Q41.2-25.9 44.8-30.4 48.4-34.9 54.95-34.9L54.95-34.9Q60.55-34.9 63.97-31.75 67.4-28.6 67.4-22.6L67.4-22.6 62.9-22.6Q62.9-26.75 60.77-28.8 58.65-30.85 54.95-30.85L54.95-30.85Q50.6-30.85 48.2-27.7 45.8-24.55 45.8-18.4L45.8-18.4 45.8-15.9Q45.8-9.7 48.07-6.58 50.35-3.45 54.7-3.45L54.7-3.45Q58.95-3.45 60.92-5.85 62.9-8.25 62.9-13.2L62.9-13.2 62.9-14 54-14ZM74.14 0L74.14-34.3 78.54-34.3 78.54 0 74.14 0ZM95.64 0.6Q90.54 0.6 87.32-1.9 84.09-4.4 84.09-9.7L84.09-9.7 84.14-10.7 88.69-10.7 88.64-9.65Q88.64-6.6 90.52-5.03 92.39-3.45 95.44-3.45L95.44-3.45Q98.89-3.45 100.77-4.93 102.64-6.4 102.64-9.15L102.64-9.15Q102.64-11 101.62-12.18 100.59-13.35 99.07-14.05 97.54-14.75 94.89-15.6L94.89-15.6Q91.64-16.7 89.64-17.7 87.64-18.7 86.22-20.63 84.79-22.55 84.79-25.7L84.79-25.7Q84.79-30.2 87.84-32.55 90.89-34.9 95.69-34.9L95.69-34.9Q100.49-34.9 103.47-32.52 106.44-30.15 106.44-25.25L106.44-25.25 106.44-24.65 101.89-24.65 101.89-25.4Q101.89-27.95 100.17-29.4 98.44-30.85 95.79-30.85L95.79-30.85Q92.94-30.85 91.19-29.63 89.44-28.4 89.44-26.05L89.44-26.05Q89.44-24.3 90.44-23.18 91.44-22.05 92.94-21.38 94.44-20.7 97.04-19.85L97.04-19.85Q100.34-18.75 102.37-17.78 104.39-16.8 105.82-14.88 107.24-12.95 107.24-9.9L107.24-9.9Q107.24-4.4 104.12-1.9 100.99 0.6 95.64 0.6L95.64 0.6ZM119.69 0L119.69-30.3 110.34-30.3 110.34-34.3 133.44-34.3 133.44-30.3 124.09-30.3 124.09 0 119.69 0Z" fill="#000000" data-fill-palette-color="primary"></path></g></svg></g></svg></g></svg></g></svg></g><g><svg viewBox="0 0 226.44916965739029 226.44916965739029" height="226.44916965739029" width="226.44916965739029"><g><svg></svg></g><g id="icon-0"><svg viewBox="0 0 226.44916965739029 226.44916965739029" height="226.44916965739029" width="226.44916965739029"><g><path d="M0 113.225c0-62.532 50.692-113.225 113.225-113.225 62.532 0 113.225 50.692 113.224 113.225 0 62.532-50.692 113.225-113.224 113.224-62.532 0-113.225-50.692-113.225-113.224zM113.225 216.964c57.294 0 103.74-46.446 103.739-103.739 0-57.294-46.446-103.74-103.739-103.74-57.294 0-103.74 46.446-103.74 103.74 0 57.294 46.446 103.74 103.74 103.739z" data-fill-palette-color="accent" fill="#000000" stroke="transparent"></path></g><g transform="matrix(1,0,0,1,55.930366596887694,48.51147263652149)"><svg viewBox="0 0 114.5884364636149 129.4262243843473" height="129.4262243843473" width="114.5884364636149"><g><svg xmlns="http://www.w3.org/2000/svg" data-name="Glyph Icon" viewBox="7.210000038146973 4 49.58000183105469 56" x="0" y="0" height="129.4262243843473" width="114.5884364636149" class="icon-s-0" data-fill-palette-color="accent" id="s-0"><path d="M49.13 20.84l-16-9.26V4L55.7 17.05ZM32 50.52L16 41.26V22.74l16-9.26 16 9.26V41.26ZM30.91 11.58l-16 9.26L8.3 17.05 30.91 4ZM13.77 22.74V41.26L7.21 45.05V19Zm1.1 20.42l16 9.26V60L8.3 47Zm18.22 9.26l16-9.26L55.7 47 33.09 60ZM50.23 41.26V22.74L56.79 19v26.1Z" fill="#000000" data-fill-palette-color="accent"></path></svg></g></svg></g></svg></g></svg></g></svg></g><defs></defs></svg><rect width="395.52" height="133.3553129147913" fill="none" stroke="none" visibility="hidden"></rect></g></svg></g></svg>